<?xml version="1.0" encoding="utf-8" standalone="no"?>
<!DOCTYPE svg PUBLIC "-//W3C//DTD SVG 1.1//EN"
  "http://www.w3.org/Graphics/SVG/1.1/DTD/svg11.dtd">
<svg xmlns:xlink="http://www.w3.org/1999/xlink" width="415.296pt" height="343.296pt" viewBox="0 0 415.296 343.296" xmlns="http://www.w3.org/2000/svg" version="1.1">
 <metadata>
  <rdf:RDF xmlns:dc="http://purl.org/dc/elements/1.1/" xmlns:cc="http://creativecommons.org/ns#" xmlns:rdf="http://www.w3.org/1999/02/22-rdf-syntax-ns#">
   <cc:Work>
    <dc:type rdf:resource="http://purl.org/dc/dcmitype/StillImage"/>
    <dc:date>2023-08-16T16:05:03.029033</dc:date>
    <dc:format>image/svg+xml</dc:format>
    <dc:creator>
     <cc:Agent>
      <dc:title>Matplotlib v3.7.1, https://matplotlib.org/</dc:title>
     </cc:Agent>
    </dc:creator>
   </cc:Work>
  </rdf:RDF>
 </metadata>
 <defs>
  <style type="text/css">*{stroke-linejoin: round; stroke-linecap: butt}</style>
 </defs>
 <g id="figure_1">
  <g id="patch_1">
   <path d="M 0 343.296 
L 415.296 343.296 
L 415.296 0 
L 0 0 
z
" style="fill: #ffffff"/>
  </g>
  <g id="axes_1">
   <g id="patch_2">
    <path d="M 53.84 143.8985 
L 408.096 143.8985 
L 408.096 7.2 
L 53.84 7.2 
z
" style="fill: #ffffff"/>
   </g>
   <g id="matplotlib.axis_1">
    <g id="xtick_1">
     <g id="line2d_1">
      <defs>
       <path id="mc3a27501fc" d="M 0 0 
L 0 3.5 
" style="stroke: #000000; stroke-width: 0.8"/>
      </defs>
      <g>
       <use xlink:href="#mc3a27501fc" x="93.92506" y="143.8985" style="stroke: #000000; stroke-width: 0.8"/>
      </g>
     </g>
     <g id="text_1">
      <!-- QPR -->
      <g transform="translate(79.77031 160.73325) scale(0.144 -0.144)">
       <defs>
        <path id="FreeSerif-51" d="M 4410 2118 
Q 4410 1766 4333 1459 
Q 4256 1152 4137 944 
Q 4019 736 3856 563 
Q 3693 390 3539 288 
Q 3386 186 3213 109 
Q 3040 32 2934 3 
Q 2829 -26 2733 -45 
Q 3123 -550 3532 -777 
Q 3942 -1005 4493 -1018 
L 4493 -1133 
Q 4390 -1139 4230 -1139 
Q 3987 -1139 3760 -1116 
Q 3533 -1094 3357 -1065 
Q 3181 -1037 3008 -969 
Q 2835 -902 2720 -860 
Q 2605 -819 2467 -723 
Q 2330 -627 2262 -582 
Q 2195 -538 2086 -429 
Q 1978 -320 1946 -285 
Q 1914 -250 1814 -134 
Q 1715 -19 1702 -6 
Q 1062 211 643 723 
Q 224 1235 224 2106 
Q 224 3078 813 3702 
Q 1402 4326 2317 4326 
Q 3232 4326 3821 3705 
Q 4410 3085 4410 2118 
z
M 3680 2131 
Q 3680 3027 3312 3561 
Q 2944 4096 2336 4096 
Q 2016 4096 1766 3965 
Q 1517 3834 1369 3632 
Q 1222 3430 1123 3161 
Q 1024 2893 989 2646 
Q 954 2400 954 2144 
Q 954 1581 1082 1168 
Q 1210 755 1421 544 
Q 1632 333 1853 237 
Q 2074 141 2317 141 
Q 2630 141 2876 272 
Q 3123 403 3270 608 
Q 3418 813 3514 1085 
Q 3610 1357 3645 1613 
Q 3680 1869 3680 2131 
z
" transform="scale(0.015625)"/>
        <path id="FreeSerif-50" d="M 3462 3078 
Q 3462 2912 3424 2758 
Q 3386 2605 3274 2432 
Q 3162 2259 2976 2134 
Q 2790 2010 2470 1926 
Q 2150 1843 1728 1843 
Q 1536 1843 1286 1862 
L 1286 698 
Q 1286 346 1398 240 
Q 1510 134 1888 122 
L 1888 0 
L 96 0 
L 96 122 
Q 461 154 547 259 
Q 634 365 634 768 
L 634 3539 
Q 634 3885 544 3981 
Q 454 4077 96 4115 
L 96 4237 
L 1786 4237 
Q 2074 4237 2342 4182 
Q 2611 4128 2876 4006 
Q 3142 3885 3302 3648 
Q 3462 3411 3462 3078 
z
M 1286 3782 
L 1286 2118 
Q 1510 2099 1651 2099 
Q 2765 2099 2765 3040 
Q 2765 3533 2457 3766 
Q 2150 4000 1504 4000 
Q 1376 4000 1331 3955 
Q 1286 3910 1286 3782 
z
" transform="scale(0.015625)"/>
        <path id="FreeSerif-52" d="M 1862 4237 
Q 2138 4237 2387 4192 
Q 2637 4147 2902 4035 
Q 3168 3923 3328 3686 
Q 3488 3450 3488 3110 
Q 3488 2259 2362 2048 
Q 2342 2042 2330 2042 
L 3648 422 
Q 3782 262 3900 198 
Q 4019 134 4205 122 
L 4205 0 
L 3174 0 
L 1651 1971 
L 1293 1958 
L 1293 698 
Q 1293 352 1395 249 
Q 1498 147 1869 122 
L 1869 0 
L 96 0 
L 96 122 
Q 454 147 547 259 
Q 640 371 640 768 
L 640 3539 
Q 640 3878 547 3977 
Q 454 4077 96 4115 
L 96 4237 
L 1862 4237 
z
M 1293 2195 
Q 2067 2208 2428 2400 
Q 2790 2592 2790 3123 
Q 2790 3571 2505 3785 
Q 2221 4000 1619 4000 
Q 1427 4000 1360 3952 
Q 1293 3904 1293 3770 
L 1293 2195 
z
" transform="scale(0.015625)"/>
       </defs>
       <use xlink:href="#FreeSerif-51"/>
       <use xlink:href="#FreeSerif-50" x="72.299988"/>
       <use xlink:href="#FreeSerif-52" x="129.899979"/>
      </g>
     </g>
    </g>
    <g id="xtick_2">
     <g id="line2d_2">
      <g>
       <use xlink:href="#mc3a27501fc" x="162.44653" y="143.8985" style="stroke: #000000; stroke-width: 0.8"/>
      </g>
     </g>
     <g id="text_2">
      <!-- MIDW -->
      <g transform="translate(141.75328 160.73325) scale(0.144 -0.144)">
       <defs>
        <path id="FreeSerif-4d" d="M 4333 3667 
L 2694 0 
L 2605 0 
L 998 3520 
L 998 941 
Q 998 454 1113 297 
Q 1229 141 1600 122 
L 1600 0 
L 96 0 
L 96 122 
Q 493 147 605 297 
Q 717 448 717 941 
L 717 3539 
Q 717 3891 611 3990 
Q 506 4090 109 4115 
L 109 4237 
L 1376 4237 
L 2854 1005 
L 4269 4237 
L 5542 4237 
L 5542 4115 
Q 5184 4083 5085 3980 
Q 4986 3878 4986 3539 
L 4986 698 
Q 4986 358 5088 252 
Q 5190 147 5542 122 
L 5542 0 
L 3750 0 
L 3750 122 
Q 4128 147 4230 259 
Q 4333 371 4333 768 
L 4333 3667 
z
" transform="scale(0.015625)"/>
        <path id="FreeSerif-49" d="M 717 698 
L 717 3539 
Q 717 3891 611 3990 
Q 506 4090 96 4115 
L 96 4237 
L 1997 4237 
L 1997 4115 
Q 1594 4096 1482 3993 
Q 1370 3891 1370 3539 
L 1370 698 
Q 1370 346 1485 240 
Q 1600 134 1997 122 
L 1997 0 
L 96 0 
L 96 122 
Q 499 134 608 236 
Q 717 339 717 698 
z
" transform="scale(0.015625)"/>
        <path id="FreeSerif-44" d="M 4378 2138 
Q 4378 1850 4314 1574 
Q 4250 1299 4077 1004 
Q 3904 710 3635 496 
Q 3366 282 2921 141 
Q 2477 0 1914 0 
L 96 0 
L 96 122 
Q 461 147 560 249 
Q 659 352 659 698 
L 659 3539 
Q 659 3891 566 3987 
Q 474 4083 96 4115 
L 96 4237 
L 1824 4237 
Q 2406 4237 2864 4105 
Q 3322 3974 3600 3766 
Q 3878 3558 4060 3273 
Q 4243 2989 4310 2713 
Q 4378 2438 4378 2138 
z
M 3680 2093 
Q 3680 2368 3625 2621 
Q 3571 2874 3430 3133 
Q 3290 3392 3066 3577 
Q 2842 3763 2477 3881 
Q 2112 4000 1645 4000 
Q 1446 4000 1379 3949 
Q 1312 3898 1312 3750 
L 1312 499 
Q 1312 346 1382 291 
Q 1453 237 1645 237 
Q 3680 237 3680 2093 
z
" transform="scale(0.015625)"/>
        <path id="FreeSerif-57" d="M 5997 4237 
L 5997 4115 
Q 5741 4064 5648 3987 
Q 5555 3910 5466 3661 
Q 4934 2234 4748 1702 
Q 4563 1171 4160 -70 
L 4064 -70 
L 3040 2637 
L 2054 -70 
L 1958 -70 
L 723 3366 
Q 563 3814 438 3952 
Q 314 4090 64 4115 
L 64 4237 
L 1632 4237 
L 1632 4115 
Q 1389 4102 1302 4060 
Q 1216 4019 1216 3910 
Q 1216 3795 1286 3616 
L 2208 1210 
L 2893 3014 
L 2682 3539 
Q 2528 3923 2419 4016 
Q 2310 4109 2035 4115 
L 2035 4237 
L 3744 4237 
L 3744 4115 
Q 3251 4109 3251 3891 
Q 3251 3821 3424 3373 
L 4269 1190 
L 5069 3360 
Q 5171 3648 5171 3840 
Q 5171 3968 5072 4029 
Q 4973 4090 4730 4115 
L 4730 4237 
L 5997 4237 
z
" transform="scale(0.015625)"/>
       </defs>
       <use xlink:href="#FreeSerif-4d"/>
       <use xlink:href="#FreeSerif-49" x="88.099991"/>
       <use xlink:href="#FreeSerif-44" x="120.799988"/>
       <use xlink:href="#FreeSerif-57" x="192.699982"/>
      </g>
     </g>
    </g>
    <g id="xtick_3">
     <g id="line2d_3">
      <g>
       <use xlink:href="#mc3a27501fc" x="230.968" y="143.8985" style="stroke: #000000; stroke-width: 0.8"/>
      </g>
     </g>
     <g id="text_3">
      <!-- Origin -->
      <g transform="translate(212.672125 160.73325) scale(0.144 -0.144)">
       <defs>
        <path id="FreeSerif-4f" d="M 2278 -90 
Q 1414 -90 819 521 
Q 224 1133 224 2118 
Q 224 3085 813 3705 
Q 1402 4326 2317 4326 
Q 3238 4326 3824 3708 
Q 4410 3091 4410 2093 
Q 4410 1126 3818 518 
Q 3226 -90 2278 -90 
z
M 3680 2099 
Q 3680 2560 3590 2918 
Q 3501 3277 3363 3494 
Q 3226 3712 3040 3853 
Q 2854 3994 2678 4045 
Q 2502 4096 2317 4096 
Q 2003 4096 1753 3961 
Q 1504 3827 1360 3625 
Q 1216 3424 1120 3149 
Q 1024 2874 989 2621 
Q 954 2368 954 2106 
Q 954 1779 1018 1465 
Q 1082 1152 1222 838 
Q 1363 525 1641 333 
Q 1920 141 2304 141 
Q 2694 141 2979 333 
Q 3264 525 3408 838 
Q 3552 1152 3616 1465 
Q 3680 1779 3680 2099 
z
" transform="scale(0.015625)"/>
        <path id="FreeSerif-72" d="M 1926 2317 
Q 1830 2317 1689 2429 
Q 1549 2541 1504 2541 
Q 1376 2541 1216 2355 
Q 1056 2170 1056 2016 
L 1056 576 
Q 1056 301 1165 205 
Q 1274 109 1600 96 
L 1600 0 
L 64 0 
L 64 96 
Q 371 154 444 224 
Q 518 294 518 538 
L 518 2138 
Q 518 2349 470 2435 
Q 422 2522 301 2522 
Q 198 2522 77 2496 
L 77 2598 
Q 589 2765 1024 2944 
L 1056 2931 
L 1056 2342 
Q 1293 2682 1459 2813 
Q 1626 2944 1824 2944 
Q 1990 2944 2083 2854 
Q 2176 2765 2176 2605 
Q 2176 2470 2109 2393 
Q 2042 2317 1926 2317 
z
" transform="scale(0.015625)"/>
        <path id="FreeSerif-69" d="M 397 2515 
Q 256 2515 128 2496 
L 128 2592 
Q 576 2720 1120 2944 
L 1146 2925 
L 1146 653 
Q 1146 307 1226 214 
Q 1306 122 1619 96 
L 1619 0 
L 102 0 
L 102 96 
Q 435 115 521 211 
Q 608 307 608 653 
L 608 2138 
Q 608 2349 560 2432 
Q 512 2515 397 2515 
z
M 819 4371 
Q 960 4371 1056 4275 
Q 1152 4179 1152 4045 
Q 1152 3904 1056 3811 
Q 960 3718 819 3718 
Q 685 3718 592 3814 
Q 499 3910 499 4044 
Q 499 4179 595 4275 
Q 691 4371 819 4371 
z
" transform="scale(0.015625)"/>
        <path id="FreeSerif-67" d="M 384 346 
Q 384 467 470 569 
Q 557 672 954 1043 
Q 634 1203 496 1401 
Q 358 1600 358 1901 
Q 358 2336 668 2640 
Q 979 2944 1427 2944 
Q 1677 2944 1961 2838 
Q 2246 2733 2432 2733 
L 2925 2733 
L 2925 2483 
L 2394 2483 
Q 2515 2208 2515 1946 
Q 2515 1504 2217 1229 
Q 1920 954 1517 954 
Q 1440 954 1152 986 
Q 1024 947 896 812 
Q 768 678 768 582 
Q 768 429 1267 410 
L 2093 371 
Q 2445 358 2656 172 
Q 2867 -13 2867 -314 
Q 2867 -774 2339 -1084 
Q 1811 -1395 1203 -1395 
Q 749 -1395 422 -1212 
Q 96 -1030 96 -774 
Q 96 -595 240 -419 
Q 384 -243 723 6 
Q 525 102 454 172 
Q 384 243 384 346 
z
M 858 -13 
Q 659 -250 601 -352 
Q 544 -454 544 -563 
Q 544 -774 800 -902 
Q 1056 -1030 1478 -1030 
Q 2022 -1030 2355 -857 
Q 2688 -685 2688 -410 
Q 2688 -237 2509 -166 
Q 2330 -96 1894 -96 
Q 1248 -96 858 -13 
z
M 2022 1696 
Q 2022 1805 1996 1958 
Q 1971 2112 1907 2307 
Q 1843 2502 1702 2633 
Q 1562 2765 1363 2765 
Q 1139 2765 1014 2605 
Q 890 2445 890 2163 
Q 890 1613 1094 1363 
Q 1299 1114 1542 1114 
Q 1766 1114 1894 1270 
Q 2022 1427 2022 1696 
z
" transform="scale(0.015625)"/>
        <path id="FreeSerif-6e" d="M 64 2547 
L 64 2656 
Q 538 2797 947 2944 
L 992 2931 
L 992 2426 
Q 1318 2733 1507 2838 
Q 1696 2944 1920 2944 
Q 2272 2944 2473 2691 
Q 2675 2438 2675 1984 
L 2675 518 
Q 2675 282 2752 202 
Q 2829 122 3066 96 
L 3066 0 
L 1734 0 
L 1734 96 
Q 1978 115 2058 224 
Q 2138 333 2138 634 
L 2138 1971 
Q 2138 2592 1670 2592 
Q 1510 2592 1376 2518 
Q 1242 2445 1011 2227 
L 1011 429 
Q 1011 256 1100 185 
Q 1190 115 1434 96 
L 1434 0 
L 77 0 
L 77 96 
Q 320 115 397 208 
Q 474 301 474 576 
L 474 2163 
Q 474 2400 422 2486 
Q 371 2573 237 2573 
Q 115 2573 64 2547 
z
" transform="scale(0.015625)"/>
       </defs>
       <use xlink:href="#FreeSerif-4f"/>
       <use xlink:href="#FreeSerif-72" x="72.399994"/>
       <use xlink:href="#FreeSerif-69" x="106.899979"/>
       <use xlink:href="#FreeSerif-67" x="131.699966"/>
       <use xlink:href="#FreeSerif-69" x="178.399963"/>
       <use xlink:href="#FreeSerif-6e" x="205.199951"/>
      </g>
     </g>
    </g>
    <g id="xtick_4">
     <g id="line2d_4">
      <g>
       <use xlink:href="#mc3a27501fc" x="299.48947" y="143.8985" style="stroke: #000000; stroke-width: 0.8"/>
      </g>
     </g>
     <g id="text_4">
      <!-- TPWL -->
      <g transform="translate(279.762595 160.73325) scale(0.144 -0.144)">
       <defs>
        <path id="FreeSerif-54" d="M 1613 3968 
L 1267 3968 
Q 730 3968 547 3821 
Q 365 3674 250 3149 
L 96 3149 
L 134 4237 
L 3744 4237 
L 3782 3149 
L 3629 3149 
Q 3520 3680 3337 3824 
Q 3155 3968 2611 3968 
L 2266 3968 
L 2266 698 
Q 2266 346 2374 243 
Q 2483 141 2880 122 
L 2880 0 
L 1011 0 
L 1011 122 
Q 1408 147 1510 252 
Q 1613 358 1613 768 
L 1613 3968 
z
" transform="scale(0.015625)"/>
        <path id="FreeSerif-4c" d="M 2285 250 
Q 2451 250 2595 269 
Q 2739 288 2848 310 
Q 2957 333 3059 384 
Q 3162 435 3226 467 
Q 3290 499 3357 572 
Q 3424 646 3459 678 
Q 3494 710 3539 796 
Q 3584 883 3597 908 
Q 3610 934 3648 1020 
Q 3686 1107 3686 1114 
L 3846 1114 
L 3539 0 
L 96 0 
L 96 122 
Q 448 147 550 252 
Q 653 358 653 698 
L 653 3539 
Q 653 3878 550 3984 
Q 448 4090 96 4115 
L 96 4237 
L 1901 4237 
L 1901 4115 
Q 1523 4090 1414 3984 
Q 1306 3878 1306 3539 
L 1306 512 
Q 1306 346 1405 298 
Q 1504 250 1856 250 
L 2285 250 
z
" transform="scale(0.015625)"/>
       </defs>
       <use xlink:href="#FreeSerif-54"/>
       <use xlink:href="#FreeSerif-50" x="60.599991"/>
       <use xlink:href="#FreeSerif-57" x="118.199982"/>
       <use xlink:href="#FreeSerif-4c" x="212.899963"/>
      </g>
     </g>
    </g>
    <g id="xtick_5">
     <g id="line2d_5">
      <g>
       <use xlink:href="#mc3a27501fc" x="368.01094" y="143.8985" style="stroke: #000000; stroke-width: 0.8"/>
      </g>
     </g>
     <g id="text_5">
      <!-- Koopman -->
      <g transform="translate(340.29769 160.73325) scale(0.144 -0.144)">
       <defs>
        <path id="FreeSerif-4b" d="M 2522 4115 
L 2522 4237 
L 4198 4237 
L 4198 4115 
Q 3866 4090 3702 4010 
Q 3539 3930 3226 3616 
L 2010 2413 
L 3501 813 
Q 3936 346 4096 237 
Q 4256 128 4506 122 
L 4506 0 
L 2554 0 
L 2554 122 
Q 2573 122 2630 125 
Q 2688 128 2720 131 
Q 2752 134 2800 140 
Q 2848 147 2880 156 
Q 2912 166 2941 182 
Q 2970 198 2986 220 
Q 3002 243 3002 269 
Q 3002 384 2768 691 
Q 2534 998 2170 1357 
L 1491 2029 
L 1325 1894 
L 1325 698 
Q 1325 346 1424 246 
Q 1523 147 1901 122 
L 1901 0 
L 96 0 
L 96 122 
Q 474 147 573 259 
Q 672 371 672 768 
L 672 3539 
Q 672 3878 569 3984 
Q 467 4090 96 4115 
L 96 4237 
L 1914 4237 
L 1914 4115 
Q 1523 4090 1424 3990 
Q 1325 3891 1325 3539 
L 1325 2227 
L 2458 3258 
Q 2957 3718 2957 3917 
Q 2957 4013 2896 4054 
Q 2835 4096 2688 4109 
Q 2598 4109 2522 4115 
z
" transform="scale(0.015625)"/>
        <path id="FreeSerif-6f" d="M 1574 2944 
Q 2189 2944 2585 2534 
Q 2982 2125 2982 1498 
Q 2982 832 2572 384 
Q 2163 -64 1561 -64 
Q 960 -64 560 368 
Q 160 800 160 1446 
Q 160 2106 553 2525 
Q 947 2944 1574 2944 
z
M 736 1760 
Q 736 1075 985 595 
Q 1235 115 1638 115 
Q 1997 115 2201 422 
Q 2406 730 2406 1274 
Q 2406 1933 2150 2349 
Q 1894 2765 1491 2765 
Q 1152 2765 944 2489 
Q 736 2214 736 1760 
z
" transform="scale(0.015625)"/>
        <path id="FreeSerif-70" d="M 90 2515 
L 90 2618 
Q 493 2739 1011 2944 
L 1050 2931 
L 1050 2438 
Q 1459 2944 1971 2944 
Q 2438 2944 2739 2560 
Q 3040 2176 3040 1581 
Q 3040 883 2653 409 
Q 2266 -64 1696 -64 
Q 1491 -64 1353 -6 
Q 1216 51 1050 211 
L 1050 -794 
Q 1050 -1094 1152 -1180 
Q 1254 -1267 1613 -1274 
L 1613 -1389 
L 64 -1389 
L 64 -1280 
Q 346 -1254 429 -1171 
Q 512 -1088 512 -838 
L 512 2157 
Q 512 2381 461 2451 
Q 410 2522 250 2522 
Q 147 2522 90 2515 
z
M 1050 2138 
L 1050 563 
Q 1050 422 1270 281 
Q 1491 141 1715 141 
Q 2061 141 2275 470 
Q 2490 800 2490 1331 
Q 2490 1888 2275 2224 
Q 2061 2560 1702 2560 
Q 1478 2560 1264 2419 
Q 1050 2278 1050 2138 
z
" transform="scale(0.015625)"/>
        <path id="FreeSerif-6d" d="M 83 2547 
L 83 2656 
Q 544 2784 979 2944 
L 1024 2931 
L 1024 2451 
Q 1421 2752 1613 2848 
Q 1805 2944 2016 2944 
Q 2522 2944 2694 2406 
Q 3194 2944 3738 2944 
Q 4480 2944 4480 1805 
L 4480 486 
Q 4480 128 4755 109 
L 4922 96 
L 4922 0 
L 3520 0 
L 3520 96 
Q 3802 128 3872 205 
Q 3942 282 3942 557 
L 3942 1907 
Q 3942 2304 3840 2457 
Q 3738 2611 3462 2611 
Q 3040 2611 2765 2221 
L 2765 608 
Q 2765 307 2857 204 
Q 2950 102 3226 96 
L 3226 0 
L 1792 0 
L 1792 96 
Q 2067 115 2147 198 
Q 2227 282 2227 550 
L 2227 1939 
Q 2227 2611 1805 2611 
Q 1626 2611 1405 2521 
Q 1184 2432 1050 2234 
L 1050 429 
Q 1050 243 1139 176 
Q 1229 109 1485 96 
L 1485 0 
L 64 0 
L 64 96 
Q 333 102 422 192 
Q 512 282 512 544 
L 512 2163 
Q 512 2394 464 2483 
Q 416 2573 288 2573 
Q 192 2573 83 2547 
z
" transform="scale(0.015625)"/>
        <path id="FreeSerif-61" d="M 160 621 
Q 160 736 185 835 
Q 211 934 275 1020 
Q 339 1107 396 1177 
Q 454 1248 569 1321 
Q 685 1395 761 1443 
Q 838 1491 995 1558 
Q 1152 1626 1235 1661 
Q 1318 1696 1497 1766 
Q 1677 1837 1760 1869 
L 1760 2259 
Q 1760 2790 1274 2790 
Q 1082 2790 947 2697 
Q 813 2605 813 2477 
Q 813 2426 829 2336 
Q 845 2246 845 2221 
Q 845 2112 758 2032 
Q 672 1952 557 1952 
Q 448 1952 365 2035 
Q 282 2118 282 2227 
Q 282 2528 592 2736 
Q 902 2944 1357 2944 
Q 1882 2944 2080 2691 
Q 2278 2438 2278 1920 
L 2278 672 
Q 2278 461 2320 381 
Q 2362 301 2470 301 
Q 2605 301 2752 422 
L 2752 256 
Q 2586 70 2461 3 
Q 2336 -64 2176 -64 
Q 1978 -64 1885 45 
Q 1792 154 1766 403 
Q 1216 -64 832 -64 
Q 538 -64 349 128 
Q 160 320 160 621 
z
M 1760 787 
L 1760 1715 
Q 1184 1504 953 1305 
Q 723 1107 723 826 
Q 723 563 851 435 
Q 979 307 1126 307 
Q 1344 307 1594 454 
Q 1696 512 1728 576 
Q 1760 640 1760 787 
z
" transform="scale(0.015625)"/>
       </defs>
       <use xlink:href="#FreeSerif-4b"/>
       <use xlink:href="#FreeSerif-6f" x="68.899994"/>
       <use xlink:href="#FreeSerif-6f" x="117.999985"/>
       <use xlink:href="#FreeSerif-70" x="166.099976"/>
       <use xlink:href="#FreeSerif-6d" x="215.09996"/>
       <use xlink:href="#FreeSerif-61" x="292.499954"/>
       <use xlink:href="#FreeSerif-6e" x="335.999939"/>
      </g>
     </g>
    </g>
   </g>
   <g id="matplotlib.axis_2">
    <g id="ytick_1">
     <g id="line2d_6">
      <path d="M 53.84 143.8985 
L 408.096 143.8985 
" clip-path="url(#pde9088655c)" style="fill: none; stroke: #cccccc; stroke-width: 0.8; stroke-linecap: square"/>
     </g>
     <g id="line2d_7">
      <defs>
       <path id="m178649abec" d="M 0 0 
L -3.5 0 
" style="stroke: #000000; stroke-width: 0.8"/>
      </defs>
      <g>
       <use xlink:href="#m178649abec" x="53.84" y="143.8985" style="stroke: #000000; stroke-width: 0.8"/>
      </g>
     </g>
     <g id="text_6">
      <!-- 0 -->
      <g transform="translate(39.64 148.815875) scale(0.144 -0.144)">
       <defs>
        <path id="FreeSerif-30" d="M 2649 524 
Q 2253 -90 1600 -90 
Q 947 -90 550 537 
Q 154 1165 154 2150 
Q 154 3078 550 3702 
Q 947 4326 1626 4326 
Q 2253 4326 2649 3712 
Q 3046 3098 3046 2112 
Q 3046 1139 2649 524 
z
M 1606 4160 
Q 768 4160 768 2093 
Q 768 77 1600 77 
Q 2432 77 2432 2099 
Q 2432 3104 2221 3632 
Q 2010 4160 1606 4160 
z
" transform="scale(0.015625)"/>
       </defs>
       <use xlink:href="#FreeSerif-30"/>
      </g>
     </g>
    </g>
    <g id="ytick_2">
     <g id="line2d_8">
      <path d="M 53.84 89.2191 
L 408.096 89.2191 
" clip-path="url(#pde9088655c)" style="fill: none; stroke: #cccccc; stroke-width: 0.8; stroke-linecap: square"/>
     </g>
     <g id="line2d_9">
      <g>
       <use xlink:href="#m178649abec" x="53.84" y="89.2191" style="stroke: #000000; stroke-width: 0.8"/>
      </g>
     </g>
     <g id="text_7">
      <!-- 2 -->
      <g transform="translate(39.64 94.136475) scale(0.144 -0.144)">
       <defs>
        <path id="FreeSerif-32" d="M 198 3053 
Q 230 3200 262 3309 
Q 294 3418 400 3626 
Q 506 3834 637 3971 
Q 768 4109 1001 4217 
Q 1235 4326 1530 4326 
Q 2029 4326 2371 4000 
Q 2714 3674 2714 3194 
Q 2714 2470 1894 1613 
L 819 486 
L 2349 486 
Q 2566 486 2672 560 
Q 2778 634 2957 909 
L 3040 877 
L 2688 0 
L 192 0 
L 192 77 
L 1331 1286 
Q 2163 2170 2163 2950 
Q 2163 3354 1913 3603 
Q 1664 3853 1261 3853 
Q 928 3853 726 3670 
Q 525 3488 333 3021 
L 198 3053 
z
" transform="scale(0.015625)"/>
       </defs>
       <use xlink:href="#FreeSerif-32"/>
      </g>
     </g>
    </g>
    <g id="ytick_3">
     <g id="line2d_10">
      <path d="M 53.84 34.5397 
L 408.096 34.5397 
" clip-path="url(#pde9088655c)" style="fill: none; stroke: #cccccc; stroke-width: 0.8; stroke-linecap: square"/>
     </g>
     <g id="line2d_11">
      <g>
       <use xlink:href="#m178649abec" x="53.84" y="34.5397" style="stroke: #000000; stroke-width: 0.8"/>
      </g>
     </g>
     <g id="text_8">
      <!-- 4 -->
      <g transform="translate(39.64 39.457075) scale(0.144 -0.144)">
       <defs>
        <path id="FreeSerif-34" d="M 3021 1478 
L 3021 1069 
L 2368 1069 
L 2368 0 
L 1875 0 
L 1875 1069 
L 77 1069 
L 77 1478 
L 2086 4326 
L 2368 4326 
L 2368 1478 
L 3021 1478 
z
M 1869 1478 
L 1869 3674 
L 333 1478 
L 1869 1478 
z
" transform="scale(0.015625)"/>
       </defs>
       <use xlink:href="#FreeSerif-34"/>
      </g>
     </g>
    </g>
    <g id="text_9">
     <!-- RMSE [mm] -->
     <g transform="translate(32.254312 115.805781) rotate(-90) scale(0.156 -0.156)">
      <defs>
       <path id="FreeSerif-53" d="M 2419 864 
Q 2419 1165 2208 1398 
Q 1997 1632 1696 1798 
Q 1395 1965 1097 2141 
Q 800 2317 589 2592 
Q 378 2867 378 3232 
Q 378 3718 707 4022 
Q 1037 4326 1485 4326 
Q 1754 4326 2067 4217 
Q 2381 4109 2445 4109 
Q 2611 4109 2650 4326 
L 2784 4326 
L 2925 2963 
L 2765 2963 
Q 2611 3526 2294 3795 
Q 1978 4064 1594 4064 
Q 1299 4064 1113 3897 
Q 928 3731 928 3469 
Q 928 3213 1145 2982 
Q 1363 2752 1869 2470 
Q 2502 2131 2784 1801 
Q 3066 1472 3066 1075 
Q 3066 582 2688 246 
Q 2310 -90 1760 -90 
Q 1440 -90 1110 19 
Q 781 128 704 128 
Q 634 128 582 67 
Q 531 6 525 -83 
L 384 -83 
L 192 1274 
L 339 1274 
Q 576 691 889 416 
Q 1203 141 1632 141 
Q 1984 141 2201 342 
Q 2419 544 2419 864 
z
" transform="scale(0.015625)"/>
       <path id="FreeSerif-45" d="M 1306 512 
Q 1306 326 1411 281 
Q 1517 237 1978 237 
L 2150 237 
Q 2835 237 3129 400 
Q 3424 563 3661 1082 
L 3840 1082 
L 3552 0 
L 96 0 
L 96 122 
Q 448 147 550 252 
Q 653 358 653 698 
L 653 3539 
Q 653 3878 550 3984 
Q 448 4090 96 4115 
L 96 4237 
L 3494 4237 
L 3514 3322 
L 3354 3322 
Q 3270 3750 3097 3872 
Q 2925 3994 2381 3994 
L 1517 3994 
Q 1389 3994 1347 3952 
Q 1306 3910 1306 3776 
L 1306 2355 
L 2291 2355 
Q 2701 2355 2819 2480 
Q 2938 2605 2995 2963 
L 3142 2963 
L 3142 1478 
L 2995 1478 
Q 2931 1875 2809 1984 
Q 2688 2093 2291 2093 
L 1306 2093 
L 1306 512 
z
" transform="scale(0.015625)"/>
       <path id="FreeSerif-20" transform="scale(0.015625)"/>
       <path id="FreeSerif-5b" d="M 1914 -838 
L 1914 -998 
L 563 -998 
L 563 4237 
L 1914 4237 
L 1914 4077 
L 1338 4077 
Q 1184 4077 1117 4009 
Q 1050 3942 1050 3795 
L 1050 -506 
Q 1050 -838 1363 -838 
L 1914 -838 
z
" transform="scale(0.015625)"/>
       <path id="FreeSerif-5d" d="M 218 4076 
L 218 4236 
L 1568 4236 
L 1568 -999 
L 218 -999 
L 218 -839 
L 794 -839 
Q 947 -839 1014 -771 
Q 1082 -704 1082 -557 
L 1082 3744 
Q 1082 4076 768 4076 
L 218 4076 
z
" transform="scale(0.015625)"/>
      </defs>
      <use xlink:href="#FreeSerif-52"/>
      <use xlink:href="#FreeSerif-4d" x="66.699997"/>
      <use xlink:href="#FreeSerif-53" x="154.799988"/>
      <use xlink:href="#FreeSerif-45" x="207.699982"/>
      <use xlink:href="#FreeSerif-20" x="268.699966"/>
      <use xlink:href="#FreeSerif-5b" x="293.699951"/>
      <use xlink:href="#FreeSerif-6d" x="326.999939"/>
      <use xlink:href="#FreeSerif-6d" x="404.899933"/>
      <use xlink:href="#FreeSerif-5d" x="482.799927"/>
     </g>
    </g>
   </g>
   <g id="patch_3">
    <path d="M 53.84 143.8985 
L 53.84 7.2 
" style="fill: none; stroke: #000000; stroke-width: 0.8; stroke-linejoin: miter; stroke-linecap: square"/>
   </g>
   <g id="patch_4">
    <path d="M 408.096 143.8985 
L 408.096 7.2 
" style="fill: none; stroke: #000000; stroke-width: 0.8; stroke-linejoin: miter; stroke-linecap: square"/>
   </g>
   <g id="patch_5">
    <path d="M 53.84 143.8985 
L 408.096 143.8985 
" style="fill: none; stroke: #000000; stroke-width: 0.8; stroke-linejoin: miter; stroke-linecap: square"/>
   </g>
   <g id="patch_6">
    <path d="M 53.84 7.2 
L 408.096 7.2 
" style="fill: none; stroke: #000000; stroke-width: 0.8; stroke-linejoin: miter; stroke-linecap: square"/>
   </g>
   <g id="patch_7">
    <path d="M 69.942545 143.8985 
L 117.907574 143.8985 
L 117.907574 123.296827 
L 69.942545 123.296827 
z
" clip-path="url(#pde9088655c)" style="fill: #9467bd"/>
   </g>
   <g id="patch_8">
    <path d="M 138.464015 143.8985 
L 186.429044 143.8985 
L 186.429044 116.978363 
L 138.464015 116.978363 
z
" clip-path="url(#pde9088655c)" style="fill: #d62728"/>
   </g>
   <g id="patch_9">
    <path d="M 206.985485 143.8985 
L 254.950515 143.8985 
L 254.950515 93.755863 
L 206.985485 93.755863 
z
" clip-path="url(#pde9088655c)" style="fill: #1f77b4"/>
   </g>
   <g id="patch_10">
    <path d="M 275.506956 143.8985 
L 323.471985 143.8985 
L 323.471985 84.26689 
L 275.506956 84.26689 
z
" clip-path="url(#pde9088655c)" style="fill: #2ca02c"/>
   </g>
   <g id="patch_11">
    <path d="M 344.028426 143.8985 
L 391.993455 143.8985 
L 391.993455 -1550.443756 
L 344.028426 -1550.443756 
z
" clip-path="url(#pde9088655c)" style="fill: #ff7f0e"/>
   </g>
   <g id="text_10">
    <!-- 0.75 -->
    <g style="fill: #5c5c5c" transform="translate(81.32506 121.343992) scale(0.144 -0.144)">
     <defs>
      <path id="FreeSerifBold-30" d="M 154 2176 
Q 154 3117 570 3760 
Q 986 4403 1600 4403 
Q 2221 4403 2633 3760 
Q 3046 3117 3046 2157 
Q 3046 1190 2636 553 
Q 2227 -83 1606 -83 
Q 966 -83 560 550 
Q 154 1184 154 2176 
z
M 1606 96 
Q 1818 96 1926 384 
Q 2035 672 2035 1421 
L 2035 2886 
Q 2035 3597 1932 3910 
Q 1830 4224 1594 4224 
Q 1363 4224 1264 3917 
Q 1165 3610 1165 2886 
L 1165 1421 
Q 1165 710 1267 403 
Q 1370 96 1606 96 
z
" transform="scale(0.015625)"/>
      <path id="FreeSerifBold-2e" d="M 800 998 
Q 1024 998 1184 835 
Q 1344 672 1344 448 
Q 1344 224 1184 70 
Q 1024 -83 794 -83 
Q 570 -83 416 73 
Q 262 230 262 461 
Q 262 678 422 838 
Q 582 998 800 998 
z
" transform="scale(0.015625)"/>
      <path id="FreeSerifBold-37" d="M 3053 4326 
L 1549 0 
L 941 0 
L 2221 3450 
L 896 3450 
Q 634 3450 496 3331 
Q 358 3213 269 2906 
L 109 2906 
L 390 4326 
L 3053 4326 
z
" transform="scale(0.015625)"/>
      <path id="FreeSerifBold-35" d="M 538 896 
Q 768 896 1158 617 
Q 1549 339 1747 339 
Q 2016 339 2201 524 
Q 2387 710 2387 979 
Q 2387 1299 2147 1555 
Q 1907 1811 1478 1946 
Q 1120 2061 326 2118 
L 947 4326 
L 3008 4326 
L 2733 3514 
L 954 3514 
L 813 2995 
Q 1478 2957 1779 2867 
Q 2304 2720 2595 2355 
Q 2886 1990 2886 1491 
Q 2886 813 2380 381 
Q 1875 -51 1082 -51 
Q 653 -51 397 102 
Q 141 256 141 512 
Q 141 678 253 787 
Q 365 896 538 896 
z
" transform="scale(0.015625)"/>
     </defs>
     <use xlink:href="#FreeSerifBold-30"/>
     <use xlink:href="#FreeSerifBold-2e" x="49.999985"/>
     <use xlink:href="#FreeSerifBold-37" x="74.999969"/>
     <use xlink:href="#FreeSerifBold-35" x="124.999954"/>
    </g>
   </g>
   <g id="text_11">
    <!-- 0.98 -->
    <g style="fill: #5c5c5c" transform="translate(149.84653 115.025528) scale(0.144 -0.144)">
     <defs>
      <path id="FreeSerifBold-39" d="M 198 -83 
L 198 83 
Q 890 224 1299 621 
Q 1709 1018 1914 1747 
Q 1677 1626 1331 1626 
Q 806 1626 486 1974 
Q 166 2323 166 2893 
Q 166 3552 553 3977 
Q 941 4403 1542 4403 
Q 2214 4403 2620 3904 
Q 3027 3405 3027 2573 
Q 3027 1338 2029 582 
Q 1651 301 1260 157 
Q 870 13 198 -83 
z
M 2029 2931 
Q 2029 3654 1901 3942 
Q 1773 4230 1530 4230 
Q 1293 4230 1216 4041 
Q 1139 3853 1139 3296 
Q 1139 2541 1264 2227 
Q 1389 1914 1683 1914 
Q 1734 1914 1776 1917 
Q 1818 1920 1846 1929 
Q 1875 1939 1894 1945 
Q 1914 1952 1930 1968 
Q 1946 1984 1955 1993 
Q 1965 2003 1968 2022 
Q 1971 2042 1974 2048 
Q 1978 2054 1978 2074 
L 1978 2099 
L 1997 2266 
Q 2029 2746 2029 2931 
z
" transform="scale(0.015625)"/>
      <path id="FreeSerifBold-38" d="M 179 1005 
Q 179 1446 432 1683 
Q 685 1920 1139 2074 
Q 666 2355 458 2640 
Q 250 2925 250 3283 
Q 250 3789 643 4096 
Q 1037 4403 1683 4403 
Q 2253 4403 2592 4153 
Q 2931 3904 2931 3475 
Q 2931 3168 2726 2957 
Q 2522 2746 2061 2586 
Q 2573 2259 2797 1936 
Q 3021 1613 3021 1197 
Q 3021 621 2611 269 
Q 2202 -83 1536 -83 
Q 928 -83 553 217 
Q 179 518 179 1005 
z
M 1907 2701 
Q 2067 2912 2118 3059 
Q 2170 3206 2170 3430 
Q 2170 3808 2022 4013 
Q 1875 4218 1606 4218 
Q 1382 4218 1228 4064 
Q 1075 3910 1075 3686 
Q 1075 3130 1907 2701 
z
M 1280 1958 
Q 1088 1677 1021 1485 
Q 954 1293 954 1030 
Q 954 602 1117 362 
Q 1280 122 1574 122 
Q 1830 122 1980 307 
Q 2131 493 2131 813 
Q 2131 1165 1968 1385 
Q 1805 1606 1280 1958 
z
" transform="scale(0.015625)"/>
     </defs>
     <use xlink:href="#FreeSerifBold-30"/>
     <use xlink:href="#FreeSerifBold-2e" x="49.999985"/>
     <use xlink:href="#FreeSerifBold-39" x="74.999969"/>
     <use xlink:href="#FreeSerifBold-38" x="124.999954"/>
    </g>
   </g>
   <g id="text_12">
    <!-- 1.83 -->
    <g style="fill: #5c5c5c" transform="translate(218.368 91.803028) scale(0.144 -0.144)">
     <defs>
      <path id="FreeSerifBold-31" d="M 960 3699 
Q 883 3699 777 3667 
Q 672 3635 553 3590 
Q 435 3546 416 3539 
L 416 3706 
L 2029 4403 
L 2138 4403 
L 2138 755 
Q 2138 384 2266 272 
Q 2394 160 2829 154 
L 2829 0 
L 429 0 
L 429 154 
Q 902 160 1046 278 
Q 1190 397 1190 794 
L 1190 3258 
Q 1190 3699 960 3699 
z
" transform="scale(0.015625)"/>
      <path id="FreeSerifBold-33" d="M 2266 986 
Q 2266 1261 2166 1475 
Q 2067 1690 1868 1840 
Q 1670 1990 1475 2083 
Q 1280 2176 979 2278 
L 979 2387 
Q 1434 2534 1622 2723 
Q 1811 2912 1811 3226 
Q 1811 3526 1635 3705 
Q 1459 3885 1158 3885 
Q 909 3885 733 3763 
Q 557 3642 371 3347 
L 237 3424 
Q 762 4403 1702 4403 
Q 2195 4403 2470 4169 
Q 2746 3936 2746 3526 
Q 2746 3245 2634 3072 
Q 2522 2899 2214 2714 
Q 2995 2362 2995 1574 
Q 2995 877 2438 393 
Q 1882 -90 1082 -90 
Q 640 -90 371 67 
Q 102 224 102 486 
Q 102 646 217 752 
Q 333 858 518 858 
Q 730 858 922 701 
Q 1114 544 1290 387 
Q 1466 230 1638 230 
Q 1926 230 2096 435 
Q 2266 640 2266 986 
z
" transform="scale(0.015625)"/>
     </defs>
     <use xlink:href="#FreeSerifBold-31"/>
     <use xlink:href="#FreeSerifBold-2e" x="49.999985"/>
     <use xlink:href="#FreeSerifBold-38" x="74.999969"/>
     <use xlink:href="#FreeSerifBold-33" x="124.999954"/>
    </g>
   </g>
   <g id="text_13">
    <!-- 2.18 -->
    <g style="fill: #5c5c5c" transform="translate(286.88947 82.314054) scale(0.144 -0.144)">
     <defs>
      <path id="FreeSerifBold-32" d="M 198 3098 
Q 685 4403 1606 4403 
Q 2125 4403 2457 4073 
Q 2790 3744 2790 3232 
Q 2790 2528 2061 1837 
L 1024 851 
L 1990 851 
Q 2483 851 2624 928 
Q 2765 1005 2906 1350 
L 3059 1350 
L 2771 0 
L 109 0 
L 109 147 
Q 1203 1312 1561 1865 
Q 1920 2419 1920 2861 
Q 1920 3187 1709 3430 
Q 1498 3674 1158 3674 
Q 666 3674 378 3098 
L 198 3098 
z
" transform="scale(0.015625)"/>
     </defs>
     <use xlink:href="#FreeSerifBold-32"/>
     <use xlink:href="#FreeSerifBold-2e" x="49.999985"/>
     <use xlink:href="#FreeSerifBold-31" x="74.999969"/>
     <use xlink:href="#FreeSerifBold-38" x="124.999954"/>
    </g>
   </g>
   <g id="text_14">
    <!-- 61.97 -->
    <g style="fill: #5c5c5c" transform="translate(351.81094 18.13588) scale(0.144 -0.144)">
     <defs>
      <path id="FreeSerifBold-36" d="M 3008 4403 
L 3008 4237 
Q 2310 4096 1897 3693 
Q 1485 3290 1306 2586 
Q 1555 2694 1843 2694 
Q 2387 2694 2713 2348 
Q 3040 2003 3040 1421 
Q 3040 768 2649 342 
Q 2259 -83 1664 -83 
Q 992 -83 585 416 
Q 179 915 179 1747 
Q 179 3053 1274 3808 
Q 1638 4058 2006 4186 
Q 2374 4314 3008 4403 
z
M 1178 1549 
Q 1178 960 1245 627 
Q 1312 294 1411 192 
Q 1510 90 1677 90 
Q 1914 90 1990 278 
Q 2067 467 2067 1037 
Q 2067 1798 1939 2102 
Q 1811 2406 1491 2406 
Q 1344 2406 1283 2348 
Q 1222 2291 1200 2121 
Q 1178 1952 1178 1549 
z
" transform="scale(0.015625)"/>
     </defs>
     <use xlink:href="#FreeSerifBold-36"/>
     <use xlink:href="#FreeSerifBold-31" x="49.999985"/>
     <use xlink:href="#FreeSerifBold-2e" x="99.999969"/>
     <use xlink:href="#FreeSerifBold-39" x="124.999954"/>
     <use xlink:href="#FreeSerifBold-37" x="174.999939"/>
    </g>
   </g>
  </g>
  <g id="axes_2">
   <g id="patch_12">
    <path d="M 53.84 316.1225 
L 408.096 316.1225 
L 408.096 179.424 
L 53.84 179.424 
z
" style="fill: #ffffff"/>
   </g>
   <g id="matplotlib.axis_3">
    <g id="xtick_6">
     <g id="line2d_12">
      <g>
       <use xlink:href="#mc3a27501fc" x="89.2656" y="316.1225" style="stroke: #000000; stroke-width: 0.8"/>
      </g>
     </g>
     <g id="text_15">
      <!-- QPR -->
      <g transform="translate(75.11085 332.95725) scale(0.144 -0.144)">
       <use xlink:href="#FreeSerif-51"/>
       <use xlink:href="#FreeSerif-50" x="72.299988"/>
       <use xlink:href="#FreeSerif-52" x="129.899979"/>
      </g>
     </g>
    </g>
    <g id="xtick_7">
     <g id="line2d_13">
      <g>
       <use xlink:href="#mc3a27501fc" x="160.1168" y="316.1225" style="stroke: #000000; stroke-width: 0.8"/>
      </g>
     </g>
     <g id="text_16">
      <!-- MIDW -->
      <g transform="translate(139.42355 332.95725) scale(0.144 -0.144)">
       <use xlink:href="#FreeSerif-4d"/>
       <use xlink:href="#FreeSerif-49" x="88.099991"/>
       <use xlink:href="#FreeSerif-44" x="120.799988"/>
       <use xlink:href="#FreeSerif-57" x="192.699982"/>
      </g>
     </g>
    </g>
    <g id="xtick_8">
     <g id="line2d_14">
      <g>
       <use xlink:href="#mc3a27501fc" x="230.968" y="316.1225" style="stroke: #000000; stroke-width: 0.8"/>
      </g>
     </g>
     <g id="text_17">
      <!-- Origin -->
      <g transform="translate(212.672125 332.95725) scale(0.144 -0.144)">
       <use xlink:href="#FreeSerif-4f"/>
       <use xlink:href="#FreeSerif-72" x="72.399994"/>
       <use xlink:href="#FreeSerif-69" x="106.899979"/>
       <use xlink:href="#FreeSerif-67" x="131.699966"/>
       <use xlink:href="#FreeSerif-69" x="178.399963"/>
       <use xlink:href="#FreeSerif-6e" x="205.199951"/>
      </g>
     </g>
    </g>
    <g id="xtick_9">
     <g id="line2d_15">
      <g>
       <use xlink:href="#mc3a27501fc" x="301.8192" y="316.1225" style="stroke: #000000; stroke-width: 0.8"/>
      </g>
     </g>
     <g id="text_18">
      <!-- TPWL -->
      <g transform="translate(282.092325 332.95725) scale(0.144 -0.144)">
       <use xlink:href="#FreeSerif-54"/>
       <use xlink:href="#FreeSerif-50" x="60.599991"/>
       <use xlink:href="#FreeSerif-57" x="118.199982"/>
       <use xlink:href="#FreeSerif-4c" x="212.899963"/>
      </g>
     </g>
    </g>
    <g id="xtick_10">
     <g id="line2d_16">
      <g>
       <use xlink:href="#mc3a27501fc" x="372.6704" y="316.1225" style="stroke: #000000; stroke-width: 0.8"/>
      </g>
     </g>
     <g id="text_19">
      <!-- Koopman -->
      <g transform="translate(344.95715 332.95725) scale(0.144 -0.144)">
       <use xlink:href="#FreeSerif-4b"/>
       <use xlink:href="#FreeSerif-6f" x="68.899994"/>
       <use xlink:href="#FreeSerif-6f" x="117.999985"/>
       <use xlink:href="#FreeSerif-70" x="166.099976"/>
       <use xlink:href="#FreeSerif-6d" x="215.09996"/>
       <use xlink:href="#FreeSerif-61" x="292.499954"/>
       <use xlink:href="#FreeSerif-6e" x="335.999939"/>
      </g>
     </g>
    </g>
   </g>
   <g id="matplotlib.axis_4">
    <g id="ytick_4">
     <g id="line2d_17">
      <path d="M 53.84 316.1225 
L 408.096 316.1225 
" clip-path="url(#pd71d0df578)" style="fill: none; stroke: #cccccc; stroke-width: 0.8; stroke-linecap: square"/>
     </g>
     <g id="line2d_18">
      <g>
       <use xlink:href="#m178649abec" x="53.84" y="316.1225" style="stroke: #000000; stroke-width: 0.8"/>
      </g>
     </g>
     <g id="text_20">
      <!-- 0 -->
      <g transform="translate(39.64 321.039875) scale(0.144 -0.144)">
       <use xlink:href="#FreeSerif-30"/>
      </g>
     </g>
    </g>
    <g id="ytick_5">
     <g id="line2d_19">
      <path d="M 53.84 257.149035 
L 408.096 257.149035 
" clip-path="url(#pd71d0df578)" style="fill: none; stroke: #cccccc; stroke-width: 0.8; stroke-linecap: square"/>
     </g>
     <g id="line2d_20">
      <g>
       <use xlink:href="#m178649abec" x="53.84" y="257.149035" style="stroke: #000000; stroke-width: 0.8"/>
      </g>
     </g>
     <g id="text_21">
      <!-- 100 -->
      <g transform="translate(25.24 262.06641) scale(0.144 -0.144)">
       <defs>
        <path id="FreeSerif-31" d="M 1171 3795 
Q 1056 3795 710 3654 
L 710 3744 
L 1862 4326 
L 1914 4314 
L 1914 474 
Q 1914 243 2029 172 
Q 2144 102 2522 96 
L 2522 0 
L 755 0 
L 755 96 
Q 1114 109 1238 201 
Q 1363 294 1363 595 
L 1363 3494 
Q 1363 3795 1171 3795 
z
" transform="scale(0.015625)"/>
       </defs>
       <use xlink:href="#FreeSerif-31"/>
       <use xlink:href="#FreeSerif-30" x="49.999985"/>
       <use xlink:href="#FreeSerif-30" x="99.999969"/>
      </g>
     </g>
    </g>
    <g id="ytick_6">
     <g id="line2d_21">
      <path d="M 53.84 198.17557 
L 408.096 198.17557 
" clip-path="url(#pd71d0df578)" style="fill: none; stroke: #cccccc; stroke-width: 0.8; stroke-linecap: square"/>
     </g>
     <g id="line2d_22">
      <g>
       <use xlink:href="#m178649abec" x="53.84" y="198.17557" style="stroke: #000000; stroke-width: 0.8"/>
      </g>
     </g>
     <g id="text_22">
      <!-- 200 -->
      <g transform="translate(25.24 203.092945) scale(0.144 -0.144)">
       <use xlink:href="#FreeSerif-32"/>
       <use xlink:href="#FreeSerif-30" x="49.999985"/>
       <use xlink:href="#FreeSerif-30" x="99.999969"/>
      </g>
     </g>
    </g>
    <g id="text_23">
     <!-- Solve time [ms] -->
     <g transform="translate(17.854313 296.141781) rotate(-90) scale(0.156 -0.156)">
      <defs>
       <path id="FreeSerif-6c" d="M 64 3987 
L 64 4090 
Q 698 4243 1082 4371 
L 1107 4358 
L 1107 538 
Q 1107 275 1193 195 
Q 1280 115 1587 96 
L 1587 0 
L 77 0 
L 77 96 
Q 378 122 474 211 
Q 570 301 570 557 
L 570 3610 
Q 570 3834 512 3917 
Q 454 4000 301 4000 
Q 173 4000 64 3987 
z
" transform="scale(0.015625)"/>
       <path id="FreeSerif-76" d="M 2963 2880 
L 2963 2784 
Q 2816 2771 2745 2688 
Q 2675 2605 2547 2285 
L 1728 230 
Q 1600 -90 1549 -90 
Q 1478 -90 1382 211 
L 614 2048 
Q 410 2541 314 2656 
Q 218 2771 32 2784 
L 32 2880 
L 1286 2880 
L 1286 2784 
Q 1120 2771 1056 2732 
Q 992 2694 992 2605 
Q 992 2502 1050 2368 
L 1702 730 
L 2336 2387 
Q 2374 2483 2374 2579 
Q 2374 2758 2074 2784 
L 2074 2880 
L 2963 2880 
z
" transform="scale(0.015625)"/>
       <path id="FreeSerif-65" d="M 621 1773 
Q 634 1370 730 1078 
Q 826 787 979 643 
Q 1133 499 1289 438 
Q 1446 378 1619 378 
Q 1926 378 2153 531 
Q 2381 685 2611 1050 
L 2714 1005 
Q 2515 486 2163 211 
Q 1811 -64 1357 -64 
Q 806 -64 483 323 
Q 160 710 160 1370 
Q 160 2080 534 2512 
Q 909 2944 1498 2944 
Q 1984 2944 2253 2653 
Q 2522 2362 2592 1773 
L 621 1773 
z
M 634 1978 
L 1939 1978 
Q 1875 2394 1740 2554 
Q 1606 2714 1312 2714 
Q 736 2714 634 1978 
z
" transform="scale(0.015625)"/>
       <path id="FreeSerif-74" d="M 1658 2880 
L 1658 2675 
L 1011 2675 
L 1011 845 
Q 1011 544 1088 406 
Q 1165 269 1344 269 
Q 1542 269 1728 493 
L 1811 422 
Q 1504 -64 1043 -64 
Q 474 -64 474 749 
L 474 2675 
L 134 2675 
Q 109 2694 109 2720 
Q 109 2752 128 2771 
Q 147 2790 201 2825 
Q 256 2861 333 2921 
Q 410 2982 544 3142 
Q 678 3302 838 3526 
Q 941 3674 966 3706 
Q 1011 3706 1011 3622 
L 1011 2880 
L 1658 2880 
z
" transform="scale(0.015625)"/>
       <path id="FreeSerif-73" d="M 1715 2816 
Q 1722 2816 1818 2880 
L 1888 2880 
L 1914 2010 
L 1818 2010 
Q 1709 2438 1549 2617 
Q 1389 2797 1114 2797 
Q 896 2797 758 2675 
Q 621 2554 621 2362 
Q 621 2086 896 1926 
L 1587 1517 
Q 1875 1344 2000 1168 
Q 2125 992 2125 755 
Q 2125 422 1859 179 
Q 1594 -64 1222 -64 
Q 1062 -64 793 -6 
Q 525 51 461 51 
Q 365 51 314 -26 
L 230 -26 
L 230 973 
L 333 973 
Q 435 525 576 339 
Q 781 77 1146 77 
Q 1389 77 1533 201 
Q 1677 326 1677 538 
Q 1677 826 1344 1018 
L 973 1229 
Q 563 1459 393 1670 
Q 224 1882 224 2150 
Q 224 2496 470 2717 
Q 717 2938 1094 2938 
Q 1306 2938 1491 2877 
Q 1677 2816 1715 2816 
z
" transform="scale(0.015625)"/>
      </defs>
      <use xlink:href="#FreeSerif-53"/>
      <use xlink:href="#FreeSerif-6f" x="52.899994"/>
      <use xlink:href="#FreeSerif-6c" x="100.999985"/>
      <use xlink:href="#FreeSerif-76" x="124.299973"/>
      <use xlink:href="#FreeSerif-65" x="169.09996"/>
      <use xlink:href="#FreeSerif-20" x="213.499954"/>
      <use xlink:href="#FreeSerif-74" x="238.499939"/>
      <use xlink:href="#FreeSerif-69" x="266.799927"/>
      <use xlink:href="#FreeSerif-6d" x="293.599915"/>
      <use xlink:href="#FreeSerif-65" x="370.499908"/>
      <use xlink:href="#FreeSerif-20" x="414.899902"/>
      <use xlink:href="#FreeSerif-5b" x="439.899887"/>
      <use xlink:href="#FreeSerif-6d" x="473.199875"/>
      <use xlink:href="#FreeSerif-73" x="550.099869"/>
      <use xlink:href="#FreeSerif-5d" x="586.799866"/>
     </g>
    </g>
   </g>
   <g id="patch_13">
    <path d="M 71.5528 309.276857 
L 106.9784 309.276857 
L 106.9784 308.636126 
L 71.5528 308.636126 
L 71.5528 309.276857 
z
" clip-path="url(#pd71d0df578)" style="fill: #9467bd; stroke: #9467bd; stroke-linejoin: miter"/>
   </g>
   <g id="line2d_23">
    <path d="M 89.2656 309.276857 
L 89.2656 309.602988 
" clip-path="url(#pd71d0df578)" style="fill: none; stroke: #9467bd; stroke-width: 1.5; stroke-linecap: square"/>
   </g>
   <g id="line2d_24">
    <path d="M 89.2656 308.636126 
L 89.2656 307.675733 
" clip-path="url(#pd71d0df578)" style="fill: none; stroke: #9467bd; stroke-width: 1.5; stroke-linecap: square"/>
   </g>
   <g id="line2d_25">
    <path d="M 80.4092 309.602988 
L 98.122 309.602988 
" clip-path="url(#pd71d0df578)" style="fill: none; stroke: #9467bd; stroke-width: 1.5; stroke-linecap: square"/>
   </g>
   <g id="line2d_26">
    <path d="M 80.4092 307.675733 
L 98.122 307.675733 
" clip-path="url(#pd71d0df578)" style="fill: none; stroke: #9467bd; stroke-width: 1.5; stroke-linecap: square"/>
   </g>
   <g id="patch_14">
    <path d="M 142.404 306.57354 
L 177.8296 306.57354 
L 177.8296 304.260399 
L 142.404 304.260399 
L 142.404 306.57354 
z
" clip-path="url(#pd71d0df578)" style="fill: #d62728; stroke: #d62728; stroke-linejoin: miter"/>
   </g>
   <g id="line2d_27">
    <path d="M 160.1168 306.57354 
L 160.1168 306.993805 
" clip-path="url(#pd71d0df578)" style="fill: none; stroke: #d62728; stroke-width: 1.5; stroke-linecap: square"/>
   </g>
   <g id="line2d_28">
    <path d="M 160.1168 304.260399 
L 160.1168 303.954094 
" clip-path="url(#pd71d0df578)" style="fill: none; stroke: #d62728; stroke-width: 1.5; stroke-linecap: square"/>
   </g>
   <g id="line2d_29">
    <path d="M 151.2604 306.993805 
L 168.9732 306.993805 
" clip-path="url(#pd71d0df578)" style="fill: none; stroke: #d62728; stroke-width: 1.5; stroke-linecap: square"/>
   </g>
   <g id="line2d_30">
    <path d="M 151.2604 303.954094 
L 168.9732 303.954094 
" clip-path="url(#pd71d0df578)" style="fill: none; stroke: #d62728; stroke-width: 1.5; stroke-linecap: square"/>
   </g>
   <g id="patch_15">
    <path d="M 213.2552 310.884239 
L 248.6808 310.884239 
L 248.6808 309.546957 
L 213.2552 309.546957 
L 213.2552 310.884239 
z
" clip-path="url(#pd71d0df578)" style="fill: #1f77b4; stroke: #1f77b4; stroke-linejoin: miter"/>
   </g>
   <g id="line2d_31">
    <path d="M 230.968 310.884239 
L 230.968 311.147379 
" clip-path="url(#pd71d0df578)" style="fill: none; stroke: #1f77b4; stroke-width: 1.5; stroke-linecap: square"/>
   </g>
   <g id="line2d_32">
    <path d="M 230.968 309.546957 
L 230.968 307.565359 
" clip-path="url(#pd71d0df578)" style="fill: none; stroke: #1f77b4; stroke-width: 1.5; stroke-linecap: square"/>
   </g>
   <g id="line2d_33">
    <path d="M 222.1116 311.147379 
L 239.8244 311.147379 
" clip-path="url(#pd71d0df578)" style="fill: none; stroke: #1f77b4; stroke-width: 1.5; stroke-linecap: square"/>
   </g>
   <g id="line2d_34">
    <path d="M 222.1116 307.565359 
L 239.8244 307.565359 
" clip-path="url(#pd71d0df578)" style="fill: none; stroke: #1f77b4; stroke-width: 1.5; stroke-linecap: square"/>
   </g>
   <g id="patch_16">
    <path d="M 284.1064 234.170088 
L 319.532 234.170088 
L 319.532 214.700976 
L 284.1064 214.700976 
L 284.1064 234.170088 
z
" clip-path="url(#pd71d0df578)" style="fill: #2ca02c; stroke: #2ca02c; stroke-linejoin: miter"/>
   </g>
   <g id="line2d_35">
    <path d="M 301.8192 234.170088 
L 301.8192 244.51613 
" clip-path="url(#pd71d0df578)" style="fill: none; stroke: #2ca02c; stroke-width: 1.5; stroke-linecap: square"/>
   </g>
   <g id="line2d_36">
    <path d="M 301.8192 214.700976 
L 301.8192 185.696542 
" clip-path="url(#pd71d0df578)" style="fill: none; stroke: #2ca02c; stroke-width: 1.5; stroke-linecap: square"/>
   </g>
   <g id="line2d_37">
    <path d="M 292.9628 244.51613 
L 310.6756 244.51613 
" clip-path="url(#pd71d0df578)" style="fill: none; stroke: #2ca02c; stroke-width: 1.5; stroke-linecap: square"/>
   </g>
   <g id="line2d_38">
    <path d="M 292.9628 185.696542 
L 310.6756 185.696542 
" clip-path="url(#pd71d0df578)" style="fill: none; stroke: #2ca02c; stroke-width: 1.5; stroke-linecap: square"/>
   </g>
   <g id="patch_17">
    <path d="M 354.9576 275.072414 
L 390.3832 275.072414 
L 390.3832 242.717213 
L 354.9576 242.717213 
L 354.9576 275.072414 
z
" clip-path="url(#pd71d0df578)" style="fill: #ff7f0e; stroke: #ff7f0e; stroke-linejoin: miter"/>
   </g>
   <g id="line2d_39">
    <path d="M 372.6704 275.072414 
L 372.6704 297.869421 
" clip-path="url(#pd71d0df578)" style="fill: none; stroke: #ff7f0e; stroke-width: 1.5; stroke-linecap: square"/>
   </g>
   <g id="line2d_40">
    <path d="M 372.6704 242.717213 
L 372.6704 204.919243 
" clip-path="url(#pd71d0df578)" style="fill: none; stroke: #ff7f0e; stroke-width: 1.5; stroke-linecap: square"/>
   </g>
   <g id="line2d_41">
    <path d="M 363.814 297.869421 
L 381.5268 297.869421 
" clip-path="url(#pd71d0df578)" style="fill: none; stroke: #ff7f0e; stroke-width: 1.5; stroke-linecap: square"/>
   </g>
   <g id="line2d_42">
    <path d="M 363.814 204.919243 
L 381.5268 204.919243 
" clip-path="url(#pd71d0df578)" style="fill: none; stroke: #ff7f0e; stroke-width: 1.5; stroke-linecap: square"/>
   </g>
   <g id="line2d_43"/>
   <g id="line2d_44"/>
   <g id="line2d_45"/>
   <g id="line2d_46"/>
   <g id="line2d_47"/>
   <g id="patch_18">
    <path d="M 53.84 316.1225 
L 53.84 179.424 
" style="fill: none; stroke: #000000; stroke-width: 0.8; stroke-linejoin: miter; stroke-linecap: square"/>
   </g>
   <g id="patch_19">
    <path d="M 408.096 316.1225 
L 408.096 179.424 
" style="fill: none; stroke: #000000; stroke-width: 0.8; stroke-linejoin: miter; stroke-linecap: square"/>
   </g>
   <g id="patch_20">
    <path d="M 53.84 316.1225 
L 408.096 316.1225 
" style="fill: none; stroke: #000000; stroke-width: 0.8; stroke-linejoin: miter; stroke-linecap: square"/>
   </g>
   <g id="patch_21">
    <path d="M 53.84 179.424 
L 408.096 179.424 
" style="fill: none; stroke: #000000; stroke-width: 0.8; stroke-linejoin: miter; stroke-linecap: square"/>
   </g>
  </g>
 </g>
 <defs>
  <clipPath id="pde9088655c">
   <rect x="53.84" y="7.2" width="354.256" height="136.6985"/>
  </clipPath>
  <clipPath id="pd71d0df578">
   <rect x="53.84" y="179.424" width="354.256" height="136.6985"/>
  </clipPath>
 </defs>
</svg>
