<?xml version="1.0" encoding="utf-8" standalone="no"?>
<!DOCTYPE svg PUBLIC "-//W3C//DTD SVG 1.1//EN"
  "http://www.w3.org/Graphics/SVG/1.1/DTD/svg11.dtd">
<svg xmlns:xlink="http://www.w3.org/1999/xlink" width="399.189252pt" height="415.296pt" viewBox="0 0 399.189252 415.296" xmlns="http://www.w3.org/2000/svg" version="1.1">
 <metadata>
  <rdf:RDF xmlns:dc="http://purl.org/dc/elements/1.1/" xmlns:cc="http://creativecommons.org/ns#" xmlns:rdf="http://www.w3.org/1999/02/22-rdf-syntax-ns#">
   <cc:Work>
    <dc:type rdf:resource="http://purl.org/dc/dcmitype/StillImage"/>
    <dc:date>2023-08-22T11:50:20.224637</dc:date>
    <dc:format>image/svg+xml</dc:format>
    <dc:creator>
     <cc:Agent>
      <dc:title>Matplotlib v3.7.1, https://matplotlib.org/</dc:title>
     </cc:Agent>
    </dc:creator>
   </cc:Work>
  </rdf:RDF>
 </metadata>
 <defs>
  <style type="text/css">*{stroke-linejoin: round; stroke-linecap: butt}</style>
 </defs>
 <g id="figure_1">
  <g id="patch_1">
   <path d="M 0 415.296 
L 399.189252 415.296 
L 399.189252 0 
L 0 0 
L 0 415.296 
z
" style="fill: none"/>
  </g>
  <g id="axes_1">
   <g id="patch_2">
    <path d="M 54.7625 370.096 
L 391.989252 370.096 
L 391.989252 7.2 
L 54.7625 7.2 
L 54.7625 370.096 
z
" style="fill: none"/>
   </g>
   <g id="matplotlib.axis_1">
    <g id="xtick_1">
     <g id="line2d_1">
      <defs>
       <path id="mc5cc3c85bb" d="M 0 0 
L 0 3.5 
" style="stroke: #000000; stroke-width: 0.8"/>
      </defs>
      <g>
       <use xlink:href="#mc5cc3c85bb" x="101.804574" y="370.096" style="stroke: #000000; stroke-width: 0.8"/>
      </g>
     </g>
     <g id="text_1">
      <!-- −20 -->
      <g transform="translate(90.543324 386.93075) scale(0.144 -0.144)">
       <defs>
        <path id="FreeSerif-2212" d="M 192 1408 
L 192 1830 
L 3418 1830 
L 3418 1408 
L 192 1408 
z
" transform="scale(0.015625)"/>
        <path id="FreeSerif-32" d="M 198 3053 
Q 230 3200 262 3309 
Q 294 3418 400 3626 
Q 506 3834 637 3971 
Q 768 4109 1001 4217 
Q 1235 4326 1530 4326 
Q 2029 4326 2371 4000 
Q 2714 3674 2714 3194 
Q 2714 2470 1894 1613 
L 819 486 
L 2349 486 
Q 2566 486 2672 560 
Q 2778 634 2957 909 
L 3040 877 
L 2688 0 
L 192 0 
L 192 77 
L 1331 1286 
Q 2163 2170 2163 2950 
Q 2163 3354 1913 3603 
Q 1664 3853 1261 3853 
Q 928 3853 726 3670 
Q 525 3488 333 3021 
L 198 3053 
z
" transform="scale(0.015625)"/>
        <path id="FreeSerif-30" d="M 2649 524 
Q 2253 -90 1600 -90 
Q 947 -90 550 537 
Q 154 1165 154 2150 
Q 154 3078 550 3702 
Q 947 4326 1626 4326 
Q 2253 4326 2649 3712 
Q 3046 3098 3046 2112 
Q 3046 1139 2649 524 
z
M 1606 4160 
Q 768 4160 768 2093 
Q 768 77 1600 77 
Q 2432 77 2432 2099 
Q 2432 3104 2221 3632 
Q 2010 4160 1606 4160 
z
" transform="scale(0.015625)"/>
       </defs>
       <use xlink:href="#FreeSerif-2212"/>
       <use xlink:href="#FreeSerif-32" x="56.399994"/>
       <use xlink:href="#FreeSerif-30" x="106.399979"/>
      </g>
     </g>
    </g>
    <g id="xtick_2">
     <g id="line2d_2">
      <g>
       <use xlink:href="#mc5cc3c85bb" x="169.007537" y="370.096" style="stroke: #000000; stroke-width: 0.8"/>
      </g>
     </g>
     <g id="text_2">
      <!-- −10 -->
      <g transform="translate(157.746287 386.93075) scale(0.144 -0.144)">
       <defs>
        <path id="FreeSerif-31" d="M 1171 3795 
Q 1056 3795 710 3654 
L 710 3744 
L 1862 4326 
L 1914 4314 
L 1914 474 
Q 1914 243 2029 172 
Q 2144 102 2522 96 
L 2522 0 
L 755 0 
L 755 96 
Q 1114 109 1238 201 
Q 1363 294 1363 595 
L 1363 3494 
Q 1363 3795 1171 3795 
z
" transform="scale(0.015625)"/>
       </defs>
       <use xlink:href="#FreeSerif-2212"/>
       <use xlink:href="#FreeSerif-31" x="56.399994"/>
       <use xlink:href="#FreeSerif-30" x="106.399979"/>
      </g>
     </g>
    </g>
    <g id="xtick_3">
     <g id="line2d_3">
      <g>
       <use xlink:href="#mc5cc3c85bb" x="236.2105" y="370.096" style="stroke: #000000; stroke-width: 0.8"/>
      </g>
     </g>
     <g id="text_3">
      <!-- 0 -->
      <g transform="translate(232.6105 386.93075) scale(0.144 -0.144)">
       <use xlink:href="#FreeSerif-30"/>
      </g>
     </g>
    </g>
    <g id="xtick_4">
     <g id="line2d_4">
      <g>
       <use xlink:href="#mc5cc3c85bb" x="303.413463" y="370.096" style="stroke: #000000; stroke-width: 0.8"/>
      </g>
     </g>
     <g id="text_4">
      <!-- 10 -->
      <g transform="translate(296.213463 386.93075) scale(0.144 -0.144)">
       <use xlink:href="#FreeSerif-31"/>
       <use xlink:href="#FreeSerif-30" x="49.999985"/>
      </g>
     </g>
    </g>
    <g id="xtick_5">
     <g id="line2d_5">
      <g>
       <use xlink:href="#mc5cc3c85bb" x="370.616426" y="370.096" style="stroke: #000000; stroke-width: 0.8"/>
      </g>
     </g>
     <g id="text_5">
      <!-- 20 -->
      <g transform="translate(363.416426 386.93075) scale(0.144 -0.144)">
       <use xlink:href="#FreeSerif-32"/>
       <use xlink:href="#FreeSerif-30" x="49.999985"/>
      </g>
     </g>
    </g>
    <g id="text_6">
     <!-- $x_{ee}$ [mm] -->
     <g transform="translate(194.047876 404.710312) scale(0.156 -0.156)">
      <defs>
       <path id="Cmmi10-78" d="M 500 184 
Q 613 97 819 97 
Q 1019 97 1172 289 
Q 1325 481 1381 709 
L 1672 1844 
Q 1741 2153 1741 2266 
Q 1741 2425 1652 2544 
Q 1563 2663 1403 2663 
Q 1200 2663 1022 2536 
Q 844 2409 722 2214 
Q 600 2019 550 1819 
Q 538 1778 500 1778 
L 422 1778 
Q 372 1778 372 1838 
L 372 1856 
Q 434 2094 584 2320 
Q 734 2547 951 2687 
Q 1169 2828 1416 2828 
Q 1650 2828 1839 2703 
Q 2028 2578 2106 2363 
Q 2216 2559 2386 2693 
Q 2556 2828 2759 2828 
Q 2897 2828 3040 2779 
Q 3184 2731 3275 2631 
Q 3366 2531 3366 2381 
Q 3366 2219 3261 2101 
Q 3156 1984 2994 1984 
Q 2891 1984 2822 2050 
Q 2753 2116 2753 2216 
Q 2753 2350 2845 2451 
Q 2938 2553 3066 2572 
Q 2950 2663 2747 2663 
Q 2541 2663 2389 2472 
Q 2238 2281 2175 2047 
L 1894 916 
Q 1825 659 1825 494 
Q 1825 331 1917 214 
Q 2009 97 2163 97 
Q 2463 97 2698 361 
Q 2934 625 3009 941 
Q 3022 978 3059 978 
L 3138 978 
Q 3163 978 3178 961 
Q 3194 944 3194 922 
Q 3194 916 3188 903 
Q 3097 522 2806 225 
Q 2516 -72 2150 -72 
Q 1916 -72 1727 54 
Q 1538 181 1459 397 
Q 1359 209 1182 68 
Q 1006 -72 806 -72 
Q 669 -72 523 -23 
Q 378 25 287 125 
Q 197 225 197 378 
Q 197 528 301 651 
Q 406 775 563 775 
Q 669 775 741 711 
Q 813 647 813 544 
Q 813 409 723 309 
Q 634 209 500 184 
z
" transform="scale(0.015625)"/>
       <path id="Cmmi10-65" d="M 1288 -72 
Q 981 -72 751 87 
Q 522 247 401 517 
Q 281 788 281 1088 
Q 281 1544 511 1945 
Q 741 2347 1134 2587 
Q 1528 2828 1978 2828 
Q 2253 2828 2458 2686 
Q 2663 2544 2663 2278 
Q 2663 1909 2369 1729 
Q 2075 1550 1706 1508 
Q 1338 1466 891 1466 
L 872 1466 
Q 769 1084 769 813 
Q 769 528 900 312 
Q 1031 97 1300 97 
Q 1681 97 2032 272 
Q 2384 447 2606 756 
Q 2625 775 2656 775 
Q 2688 775 2720 739 
Q 2753 703 2753 672 
Q 2753 647 2741 634 
Q 2506 306 2109 117 
Q 1713 -72 1288 -72 
z
M 909 1631 
Q 1281 1631 1597 1665 
Q 1913 1700 2169 1839 
Q 2425 1978 2425 2272 
Q 2425 2391 2359 2480 
Q 2294 2569 2189 2616 
Q 2084 2663 1972 2663 
Q 1700 2663 1483 2516 
Q 1266 2369 1125 2133 
Q 984 1897 909 1631 
z
" transform="scale(0.015625)"/>
       <path id="FreeSerif-20" transform="scale(0.015625)"/>
       <path id="FreeSerif-5b" d="M 1914 -838 
L 1914 -998 
L 563 -998 
L 563 4237 
L 1914 4237 
L 1914 4077 
L 1338 4077 
Q 1184 4077 1117 4009 
Q 1050 3942 1050 3795 
L 1050 -506 
Q 1050 -838 1363 -838 
L 1914 -838 
z
" transform="scale(0.015625)"/>
       <path id="FreeSerif-6d" d="M 83 2547 
L 83 2656 
Q 544 2784 979 2944 
L 1024 2931 
L 1024 2451 
Q 1421 2752 1613 2848 
Q 1805 2944 2016 2944 
Q 2522 2944 2694 2406 
Q 3194 2944 3738 2944 
Q 4480 2944 4480 1805 
L 4480 486 
Q 4480 128 4755 109 
L 4922 96 
L 4922 0 
L 3520 0 
L 3520 96 
Q 3802 128 3872 205 
Q 3942 282 3942 557 
L 3942 1907 
Q 3942 2304 3840 2457 
Q 3738 2611 3462 2611 
Q 3040 2611 2765 2221 
L 2765 608 
Q 2765 307 2857 204 
Q 2950 102 3226 96 
L 3226 0 
L 1792 0 
L 1792 96 
Q 2067 115 2147 198 
Q 2227 282 2227 550 
L 2227 1939 
Q 2227 2611 1805 2611 
Q 1626 2611 1405 2521 
Q 1184 2432 1050 2234 
L 1050 429 
Q 1050 243 1139 176 
Q 1229 109 1485 96 
L 1485 0 
L 64 0 
L 64 96 
Q 333 102 422 192 
Q 512 282 512 544 
L 512 2163 
Q 512 2394 464 2483 
Q 416 2573 288 2573 
Q 192 2573 83 2547 
z
" transform="scale(0.015625)"/>
       <path id="FreeSerif-5d" d="M 218 4076 
L 218 4236 
L 1568 4236 
L 1568 -999 
L 218 -999 
L 218 -839 
L 794 -839 
Q 947 -839 1014 -771 
Q 1082 -704 1082 -557 
L 1082 3744 
Q 1082 4076 768 4076 
L 218 4076 
z
" transform="scale(0.015625)"/>
      </defs>
      <use xlink:href="#Cmmi10-78" transform="translate(0 0.796875)"/>
      <use xlink:href="#Cmmi10-65" transform="translate(57.080078 -16.209375) scale(0.7)"/>
      <use xlink:href="#Cmmi10-65" transform="translate(89.619141 -16.209375) scale(0.7)"/>
      <use xlink:href="#FreeSerif-20" transform="translate(128.535547 0.796875)"/>
      <use xlink:href="#FreeSerif-5b" transform="translate(153.535532 0.796875)"/>
      <use xlink:href="#FreeSerif-6d" transform="translate(186.835519 0.796875)"/>
      <use xlink:href="#FreeSerif-6d" transform="translate(264.735513 0.796875)"/>
      <use xlink:href="#FreeSerif-5d" transform="translate(342.635507 0.796875)"/>
     </g>
    </g>
   </g>
   <g id="matplotlib.axis_2">
    <g id="ytick_1">
     <g id="line2d_6">
      <defs>
       <path id="m32961debea" d="M 0 0 
L -3.5 0 
" style="stroke: #000000; stroke-width: 0.8"/>
      </defs>
      <g>
       <use xlink:href="#m32961debea" x="54.7625" y="323.053926" style="stroke: #000000; stroke-width: 0.8"/>
      </g>
     </g>
     <g id="text_7">
      <!-- −20 -->
      <g transform="translate(25.24 327.971301) scale(0.144 -0.144)">
       <use xlink:href="#FreeSerif-2212"/>
       <use xlink:href="#FreeSerif-32" x="56.399994"/>
       <use xlink:href="#FreeSerif-30" x="106.399979"/>
      </g>
     </g>
    </g>
    <g id="ytick_2">
     <g id="line2d_7">
      <g>
       <use xlink:href="#m32961debea" x="54.7625" y="255.850963" style="stroke: #000000; stroke-width: 0.8"/>
      </g>
     </g>
     <g id="text_8">
      <!-- −10 -->
      <g transform="translate(25.24 260.768338) scale(0.144 -0.144)">
       <use xlink:href="#FreeSerif-2212"/>
       <use xlink:href="#FreeSerif-31" x="56.399994"/>
       <use xlink:href="#FreeSerif-30" x="106.399979"/>
      </g>
     </g>
    </g>
    <g id="ytick_3">
     <g id="line2d_8">
      <g>
       <use xlink:href="#m32961debea" x="54.7625" y="188.648" style="stroke: #000000; stroke-width: 0.8"/>
      </g>
     </g>
     <g id="text_9">
      <!-- 0 -->
      <g transform="translate(40.5625 193.565375) scale(0.144 -0.144)">
       <use xlink:href="#FreeSerif-30"/>
      </g>
     </g>
    </g>
    <g id="ytick_4">
     <g id="line2d_9">
      <g>
       <use xlink:href="#m32961debea" x="54.7625" y="121.445037" style="stroke: #000000; stroke-width: 0.8"/>
      </g>
     </g>
     <g id="text_10">
      <!-- 10 -->
      <g transform="translate(33.3625 126.362412) scale(0.144 -0.144)">
       <use xlink:href="#FreeSerif-31"/>
       <use xlink:href="#FreeSerif-30" x="49.999985"/>
      </g>
     </g>
    </g>
    <g id="ytick_5">
     <g id="line2d_10">
      <g>
       <use xlink:href="#m32961debea" x="54.7625" y="54.242074" style="stroke: #000000; stroke-width: 0.8"/>
      </g>
     </g>
     <g id="text_11">
      <!-- 20 -->
      <g transform="translate(33.3625 59.159449) scale(0.144 -0.144)">
       <use xlink:href="#FreeSerif-32"/>
       <use xlink:href="#FreeSerif-30" x="49.999985"/>
      </g>
     </g>
    </g>
    <g id="text_12">
     <!-- $y_{ee}$ [mm] -->
     <g transform="translate(17.854312 217.352) rotate(-90) scale(0.156 -0.156)">
      <defs>
       <path id="Cmmi10-79" d="M 538 -916 
Q 672 -1147 1006 -1147 
Q 1309 -1147 1531 -934 
Q 1753 -722 1889 -420 
Q 2025 -119 2100 197 
Q 1816 -72 1484 -72 
Q 1231 -72 1053 15 
Q 875 103 776 276 
Q 678 450 678 697 
Q 678 906 734 1126 
Q 791 1347 892 1617 
Q 994 1888 1069 2088 
Q 1153 2322 1153 2472 
Q 1153 2663 1013 2663 
Q 759 2663 595 2402 
Q 431 2141 353 1819 
Q 341 1778 300 1778 
L 225 1778 
Q 172 1778 172 1838 
L 172 1856 
Q 275 2238 487 2533 
Q 700 2828 1025 2828 
Q 1253 2828 1411 2678 
Q 1569 2528 1569 2297 
Q 1569 2178 1516 2047 
Q 1488 1969 1388 1706 
Q 1288 1444 1234 1272 
Q 1181 1100 1147 934 
Q 1113 769 1113 603 
Q 1113 391 1203 244 
Q 1294 97 1491 97 
Q 1888 97 2203 581 
L 2688 2553 
Q 2709 2638 2787 2698 
Q 2866 2759 2956 2759 
Q 3034 2759 3092 2709 
Q 3150 2659 3150 2578 
Q 3150 2541 3144 2528 
L 2509 -19 
Q 2425 -347 2200 -647 
Q 1975 -947 1658 -1130 
Q 1341 -1313 997 -1313 
Q 831 -1313 668 -1248 
Q 506 -1184 406 -1056 
Q 306 -928 306 -756 
Q 306 -581 409 -453 
Q 513 -325 684 -325 
Q 788 -325 858 -389 
Q 928 -453 928 -556 
Q 928 -703 818 -812 
Q 709 -922 563 -922 
Q 556 -919 550 -917 
Q 544 -916 538 -916 
z
" transform="scale(0.015625)"/>
      </defs>
      <use xlink:href="#Cmmi10-79" transform="translate(0 0.796875)"/>
      <use xlink:href="#Cmmi10-65" transform="translate(49.023438 -16.209375) scale(0.7)"/>
      <use xlink:href="#Cmmi10-65" transform="translate(81.5625 -16.209375) scale(0.7)"/>
      <use xlink:href="#FreeSerif-20" transform="translate(120.478906 0.796875)"/>
      <use xlink:href="#FreeSerif-5b" transform="translate(145.478891 0.796875)"/>
      <use xlink:href="#FreeSerif-6d" transform="translate(178.778879 0.796875)"/>
      <use xlink:href="#FreeSerif-6d" transform="translate(256.678873 0.796875)"/>
      <use xlink:href="#FreeSerif-5d" transform="translate(334.578867 0.796875)"/>
     </g>
    </g>
   </g>
   <g id="patch_3">
    <path d="M 54.7625 370.096 
L 54.7625 7.2 
" style="fill: none; stroke: #000000; stroke-width: 0.8; stroke-linejoin: miter; stroke-linecap: square"/>
   </g>
   <g id="patch_4">
    <path d="M 391.989252 370.096 
L 391.989252 7.2 
" style="fill: none; stroke: #000000; stroke-width: 0.8; stroke-linejoin: miter; stroke-linecap: square"/>
   </g>
   <g id="patch_5">
    <path d="M 54.7625 370.096 
L 391.989252 370.096 
" style="fill: none; stroke: #000000; stroke-width: 0.8; stroke-linejoin: miter; stroke-linecap: square"/>
   </g>
   <g id="patch_6">
    <path d="M 54.7625 7.2 
L 391.989252 7.2 
" style="fill: none; stroke: #000000; stroke-width: 0.8; stroke-linejoin: miter; stroke-linecap: square"/>
   </g>
   <g id="line2d_11">
    <path d="M 236.2105 188.648 
L 344.349103 111.114117 
L 344.947178 109.646179 
L 341.892325 105.604007 
L 338.687292 101.679844 
L 335.336633 97.879269 
L 331.845112 94.20768 
L 328.217688 90.670297 
L 324.459516 87.272145 
L 320.575939 84.018054 
L 316.572473 80.912647 
L 312.454808 77.960339 
L 308.228797 75.165323 
L 303.900443 72.531573 
L 299.475898 70.062831 
L 294.961449 67.762604 
L 290.363513 65.634163 
L 285.688621 63.680531 
L 280.943419 61.904484 
L 276.134649 60.308547 
L 271.269144 58.894987 
L 266.353819 57.665813 
L 261.395659 56.622773 
L 256.401709 55.767347 
L 251.379067 55.100752 
L 246.334869 54.623935 
L 241.276284 54.337573 
L 236.2105 54.242074 
L 231.144716 54.337573 
L 226.086131 54.623935 
L 221.041933 55.100752 
L 216.019291 55.767347 
L 211.025341 56.622773 
L 206.067181 57.665813 
L 201.151856 58.894987 
L 196.286351 60.308547 
L 191.477581 61.904484 
L 186.732379 63.680531 
L 182.057487 65.634163 
L 177.459551 67.762604 
L 172.945102 70.062831 
L 168.520557 72.531573 
L 164.192203 75.165323 
L 159.966192 77.960339 
L 155.848527 80.912647 
L 151.845061 84.018054 
L 147.961484 87.272145 
L 144.203312 90.670297 
L 140.575888 94.20768 
L 137.084367 97.879269 
L 133.733708 101.679844 
L 130.528675 105.604007 
L 127.473822 109.646179 
L 124.573489 113.800617 
L 121.831799 118.061418 
L 119.252647 122.422525 
L 116.839698 126.877743 
L 114.596382 131.42074 
L 112.525886 136.04506 
L 110.631153 140.744131 
L 108.914875 145.511277 
L 107.379491 150.339722 
L 106.027183 155.222605 
L 104.859873 160.152988 
L 103.879219 165.123864 
L 103.086615 170.128168 
L 102.483187 175.158791 
L 102.069793 180.208582 
L 101.847021 185.270366 
L 101.815186 190.33695 
L 101.974335 195.401134 
L 102.32424 200.455721 
L 102.864405 205.493529 
L 103.594062 210.507399 
L 104.512174 215.490205 
L 105.617437 220.434867 
L 106.90828 225.334358 
L 108.382868 230.181715 
L 110.039107 234.970051 
L 111.874641 239.692561 
L 113.886864 244.342534 
L 116.072916 248.913361 
L 118.429689 253.398549 
L 120.953836 257.791722 
L 123.641768 262.086638 
L 126.489667 266.277194 
L 129.493485 270.357435 
L 132.648954 274.321562 
L 135.95159 278.163942 
L 139.396699 281.879115 
L 142.979385 285.461801 
L 146.694558 288.90691 
L 150.536938 292.209546 
L 154.501065 295.365015 
L 158.581306 298.368833 
L 162.771862 301.216732 
L 167.066778 303.904664 
L 171.459951 306.428811 
L 175.945139 308.785584 
L 180.515966 310.971636 
L 185.165939 312.983859 
L 189.888449 314.819393 
L 194.676785 316.475632 
L 199.524142 317.95022 
L 204.423633 319.241063 
L 209.368295 320.346326 
L 214.351101 321.264438 
L 219.364971 321.994095 
L 224.402779 322.53426 
L 229.457366 322.884165 
L 234.52155 323.043314 
L 239.588134 323.011479 
L 244.649918 322.788707 
L 249.699709 322.375313 
L 254.730332 321.771885 
L 259.734636 320.979281 
L 264.705512 319.998627 
L 269.635895 318.831317 
L 274.518778 317.479009 
L 279.347223 315.943625 
L 284.114369 314.227347 
L 288.81344 312.332614 
L 293.43776 310.262118 
L 297.980757 308.018802 
L 302.435975 305.605853 
L 306.797082 303.026701 
L 311.057883 300.285011 
L 315.212321 297.384678 
L 319.254493 294.329825 
L 323.178656 291.124792 
L 326.979231 287.774133 
L 330.65082 284.282612 
L 334.188203 280.655188 
L 337.586355 276.897016 
L 340.840446 273.013439 
L 343.945853 269.009973 
L 344.947178 267.649821 
L 344.349103 266.181883 
L 236.2105 188.648 
L 236.2105 188.648 
" clip-path="url(#pc6f6d23dac)" style="fill: none; stroke-dasharray: 3.7,1.6; stroke-dashoffset: 0; stroke: #000000; stroke-opacity: 0.9"/>
   </g>
  </g>
 </g>
 <defs>
  <clipPath id="pc6f6d23dac">
   <rect x="54.7625" y="7.2" width="337.226752" height="362.896"/>
  </clipPath>
 </defs>
</svg>
